<svg width="80" height="80" viewBox="0 0 80 80" fill="none" xmlns="http://www.w3.org/2000/svg">
<path opacity="0.5" d="M39.9998 73.3333C24.2863 73.3333 16.4296 73.3333 11.5481 68.4517C6.6665 63.5703 6.6665 55.7133 6.6665 40C6.6665 24.2865 6.6665 16.4298 11.5481 11.5482C16.4296 6.66666 24.2863 6.66666 39.9998 6.66666C55.7132 6.66666 63.5702 6.66666 68.4515 11.5482C73.3332 16.4298 73.3332 24.2865 73.3332 40C73.3332 55.7133 73.3332 63.5703 68.4515 68.4517C63.5702 73.3333 55.7132 73.3333 39.9998 73.3333Z" fill="#001F54"/>
<path d="M29.8987 29.8989C30.875 28.9226 32.458 28.9226 33.4342 29.8989L39.9998 36.4647L46.5655 29.899C47.5418 28.9227 49.1245 28.9227 50.1008 29.899C51.0772 30.8753 51.0772 32.4582 50.1008 33.4343L43.5355 40L50.1008 46.5657C51.0772 47.5417 51.0772 49.1247 50.1008 50.101C49.1245 51.0773 47.5415 51.0773 46.5652 50.101L39.9998 43.5357L33.4345 50.101C32.458 51.0773 30.8751 51.0773 29.8988 50.101C28.9225 49.1247 28.9225 47.542 29.8988 46.5657L36.4645 40L29.8987 33.4343C28.9224 32.4581 28.9224 30.8752 29.8987 29.8989Z" fill="#091128"/>
</svg>
