<svg width="120" height="120" viewBox="0 0 120 120" fill="none" xmlns="http://www.w3.org/2000/svg">
<path d="M60 77.5V42.5M60 42.5L47.5 55M60 42.5L72.5 55" stroke="#99B6E9" stroke-width="10" stroke-linecap="round" stroke-linejoin="round"/>
<path d="M16.7644 44.7522C20.0219 30.8651 30.8651 20.0219 44.7522 16.7644C54.7815 14.4119 65.2185 14.4119 75.248 16.7644C89.135 20.0219 99.978 30.8651 103.236 44.7522C105.588 54.7815 105.588 65.2185 103.236 75.248C99.978 89.135 89.135 99.978 75.248 103.236C65.2185 105.588 54.7815 105.588 44.7522 103.236C30.8651 99.978 20.0219 89.135 16.7644 75.248C14.4119 65.2185 14.4119 54.7815 16.7644 44.7522Z" stroke="#99B6E9" stroke-width="10"/>
<path d="M16.7644 44.7524C14.4119 54.7818 14.4119 65.2188 16.7644 75.2483C20.0219 89.1353 30.8651 99.9783 44.7522 103.236C54.7815 105.588 65.2185 105.588 75.248 103.236C89.135 99.9783 99.978 89.1353 103.236 75.2483C105.588 65.2188 105.588 54.7818 103.236 44.7524C99.978 30.8653 89.135 20.0221 75.248 16.7646" stroke="#363853" stroke-width="10" stroke-linecap="round"/>
</svg>
