<svg width="80" height="80" viewBox="0 0 80 80" fill="none" xmlns="http://www.w3.org/2000/svg">
<path d="M30.0002 40C30.0002 41.841 28.5078 43.3333 26.6668 43.3333C24.8259 43.3333 23.3335 41.841 23.3335 40C23.3335 38.159 24.8259 36.6667 26.6668 36.6667C28.5078 36.6667 30.0002 38.159 30.0002 40Z" fill="#99B6E9"/>
<path d="M43.3332 40C43.3332 41.841 41.8408 43.3333 39.9998 43.3333C38.1588 43.3333 36.6665 41.841 36.6665 40C36.6665 38.159 38.1588 36.6667 39.9998 36.6667C41.8408 36.6667 43.3332 38.159 43.3332 40Z" fill="#99B6E9"/>
<path d="M56.6667 40C56.6667 41.841 55.1743 43.3333 53.3333 43.3333C51.4923 43.3333 50 41.841 50 40C50 38.159 51.4923 36.6667 53.3333 36.6667C55.1743 36.6667 56.6667 38.159 56.6667 40Z" fill="#99B6E9"/>
<path d="M73.3332 40C73.3332 55.7133 73.3332 63.5703 68.4515 68.4517C63.5702 73.3333 55.7132 73.3333 39.9998 73.3333C24.2863 73.3333 16.4296 73.3333 11.5481 68.4517C6.6665 63.5703 6.6665 55.7133 6.6665 40C6.6665 24.2865 6.6665 16.4298 11.5481 11.5482C16.4296 6.66667 24.2863 6.66667 39.9998 6.66667C55.7132 6.66667 63.5702 6.66667 68.4515 11.5482C71.6975 14.794 72.7852 19.3552 73.1495 26.6667" stroke="#99B6E9" stroke-width="5" stroke-linecap="round"/>
</svg>
