<svg width="200" height="200" viewBox="0 0 200 200" fill="none" xmlns="http://www.w3.org/2000/svg">
<circle cx="100" cy="100" r="95" stroke="#99B6E9" stroke-width="10"/>
<path d="M147.297 79.3281L149.359 74.0312H139.703L141.437 79.3281H147.297ZM149.359 81.0625L139.703 81.0156V81.0625C136.328 82.7969 134.031 86.3125 134.031 90.3437C134.031 96.1562 138.719 100.797 144.484 100.797C150.297 100.797 154.937 96.1094 154.937 90.3437C155.031 86.3125 152.734 82.7969 149.359 81.0625ZM145.187 95.4063V96.9062H143.734V95.5469C142.75 95.5 141.812 95.2188 141.25 94.9375L141.672 93.2031C142.281 93.5312 143.172 93.8125 144.109 93.8125C144.906 93.8125 145.562 93.4844 145.562 92.875C145.562 92.3125 145.047 91.9375 144.016 91.6094C142.469 91.0938 141.391 90.3437 141.391 88.9375C141.391 87.625 142.328 86.6406 143.875 86.3125V84.9531H145.328V86.2656C146.312 86.3125 146.969 86.5 147.437 86.7812L147.016 88.4687C146.641 88.2812 145.937 87.9531 144.906 87.9531C143.969 87.9531 143.641 88.375 143.641 88.75C143.641 89.2656 144.156 89.5469 145.375 90.0156C147.109 90.625 147.812 91.4687 147.812 92.7344C147.812 93.9531 146.875 95.0781 145.187 95.4063ZM62.875 65.9219L66.1094 57.3437H50.5469L53.2656 65.9219H62.875ZM66.1094 68.7344V68.6875H50.4531V68.7344C44.9687 71.5469 41.3125 77.2656 41.3125 83.8281C41.3125 93.25 48.9063 100.844 58.3281 100.844C67.75 100.844 75.3438 93.25 75.3438 83.8281C75.3438 77.2656 71.5938 71.5469 66.1094 68.7344ZM59.4062 92.0312V94.4688H57.1094V92.2187C55.4688 92.1719 54.0156 91.7031 53.0781 91.2344L53.7813 88.4219C54.7656 88.9844 56.2187 89.5 57.7187 89.5C59.0781 89.5 60.0156 88.9844 60.0156 88C60.0156 87.1094 59.2656 86.5 57.5312 85.9375C54.9531 85.0469 53.2188 83.875 53.2188 81.5781C53.2188 79.4687 54.7187 77.8281 57.25 77.3594V75.1094H59.5469V77.2187C61.1875 77.2656 62.2188 77.5938 62.9688 78.0156L62.2656 80.6875C61.6563 80.4531 60.5313 79.8906 58.8438 79.8906C57.2969 79.8906 56.7812 80.5937 56.7812 81.2031C56.7812 82 57.5781 82.5156 59.6406 83.2656C62.4531 84.25 63.625 85.5625 63.625 87.6719C63.625 89.7344 62.125 91.5156 59.4062 92.0312ZM102.203 80.1719C109.047 80.1719 114.531 74.6875 114.531 67.8437C114.531 61 109.047 55.5156 102.203 55.5156C95.3594 55.5156 89.875 61 89.875 67.8437C89.875 74.6875 95.3594 80.1719 102.203 80.1719ZM73.6094 115.984H51.4375C44.2188 115.984 43.8438 105.016 51.5781 105.016H70.7031L81.8125 88.7969C85.0469 84.2969 88.7969 82.1875 94.0469 82.1875H110.5C115.75 82.1875 119.453 84.2031 122.734 88.7969L133.844 105.016H153.156C160.891 105.016 160.375 115.984 153.391 115.984H131.219C129.484 115.984 127.375 115.375 126.109 113.5L117.625 101.406L117.578 132.953H87.25L87.2031 101.406L78.8125 113.5C77.4531 115.328 75.3438 115.984 73.6094 115.984Z" fill="black"/>
</svg>
