<svg width="200" height="200" viewBox="0 0 200 200" fill="none" xmlns="http://www.w3.org/2000/svg">
<circle cx="100" cy="100" r="95" stroke="#99B6E9" stroke-width="10"/>
<path d="M40.4688 90.4532V144.453H66.7912L73.5208 82.2808L40.4688 90.4532ZM61.0938 121.727C61.0938 123.017 60.0484 124.062 58.7587 124.062H48.6632C47.3734 124.062 46.3281 123.017 46.3281 121.727V103.897C46.3281 102.608 47.3734 101.562 48.6632 101.562H58.7589C60.0484 101.562 61.094 102.607 61.094 103.897L61.0938 121.727Z" fill="black"/>
<path d="M109.609 70.625H91.3281V81.1719H109.609V70.625Z" fill="black"/>
<path d="M109.609 111.172H91.3281V144.219H109.609V111.172Z" fill="black"/>
<path d="M111.953 45.5469H88.9844V50.9375H111.953V45.5469Z" fill="black"/>
<path d="M56.6406 106.25H51.0156V119.141H56.6406V106.25Z" fill="black"/>
<path d="M149.922 106.25H144.297V119.141H149.922V106.25Z" fill="black"/>
<path d="M127.426 82.4097L134.141 144.453H159.531V90.4478L127.426 82.4097ZM154.375 121.727C154.375 123.017 153.33 124.062 152.04 124.062H141.944C140.655 124.062 139.609 123.017 139.609 121.727V103.897C139.609 102.608 140.655 101.562 141.944 101.562H152.04C153.33 101.562 154.375 102.607 154.375 103.897V121.727Z" fill="black"/>
<path d="M122.222 78.7105C122.244 78.6207 122.273 78.5605 122.305 78.4761L119.833 55.625H114.354H86.5777H81.0987L71.5029 144.219H86.6405V108.825C86.6405 107.536 87.8136 106.484 89.1029 106.484H111.829C113.118 106.484 114.297 107.536 114.297 108.825V144.219H129.429L122.531 80.4812C122.191 79.9569 122.059 79.3648 122.222 78.7105ZM114.062 83.5243C114.062 84.8138 113.017 85.8594 111.727 85.8594H88.9754C87.6858 85.8594 86.6403 84.8141 86.6403 83.5243V68.2723C86.6403 66.9828 87.6856 65.9373 88.9754 65.9373H111.727C113.017 65.9373 114.062 66.9826 114.062 68.2723V83.5243Z" fill="black"/>
</svg>
