<svg width="200" height="200" viewBox="0 0 200 200" fill="none" xmlns="http://www.w3.org/2000/svg">
<circle cx="100" cy="100" r="95" stroke="#99B6E9" stroke-width="10"/>
<g clip-path="url(#clip0_133_14)">
<path d="M111.687 51.9572C111.365 49.5727 110.136 47.4565 108.223 45.9976C104.27 42.9835 98.6078 43.748 95.5986 47.6968C93.4625 50.4957 90.6714 58.2275 88.8135 63.8459C86.9558 58.2275 84.1644 50.4957 82.0283 47.6968C79.0171 43.7471 73.3546 42.9856 69.4039 45.9976C67.4912 47.4563 66.2619 49.5729 65.9399 51.9572C65.62 54.3418 66.2457 56.7085 67.7057 58.621C71.0385 62.9926 86.1179 71.4242 87.8279 72.3706C88.1359 72.5415 88.4755 72.6258 88.813 72.6258C89.1498 72.6258 89.473 72.515 89.7739 72.3509L89.7981 72.3706C91.5083 71.424 106.588 62.9926 109.92 58.621C111.381 56.7085 112.007 54.3418 111.687 51.9572ZM70.9393 56.1542C70.1389 55.1054 69.7953 53.8076 69.9721 52.4996C70.1488 51.1915 70.8221 50.0316 71.871 49.2315C72.7649 48.5511 73.8153 48.2213 74.8602 48.2213C76.3499 48.2213 77.8236 48.8907 78.7951 50.164C80.5986 52.5286 83.413 60.4149 85.3159 66.2457C79.389 62.7476 72.6238 58.3639 70.9393 56.1542ZM106.688 56.1542C105.003 58.362 98.24 62.7465 92.3113 66.2443C94.2139 60.4147 97.0285 52.5284 98.8321 50.1638C99.8033 48.8907 101.277 48.2211 102.767 48.2211C103.81 48.2211 104.864 48.5508 105.756 49.2312C106.805 50.0316 107.478 51.1915 107.655 52.4994C107.832 53.8074 107.488 55.1054 106.688 56.1542Z" fill="#00C3FF"/>
<path d="M88.8135 74.6595C88.5573 74.6595 88.3009 74.6109 88.0586 74.5146L62.6347 64.3451C61.5918 63.927 61.0834 62.7441 61.5006 61.7004C61.9178 60.6567 63.1115 60.1542 64.1441 60.5672L88.8133 70.4346L113.482 60.567C114.515 60.1549 115.709 60.6565 116.126 61.7002C116.543 62.7438 116.035 63.9267 114.992 64.3448L89.5677 74.5144C89.3261 74.6109 89.0699 74.6595 88.8135 74.6595Z" fill="#00AAF0"/>
<path d="M151.864 105.168H127.458V133.643H157.966C159.089 133.643 160 132.732 160 131.609V113.304C160 108.81 156.358 105.168 151.864 105.168Z" fill="#00AAF0"/>
<path d="M127.458 109.236H151.865C154.111 109.236 155.932 111.057 155.932 113.304V133.643H127.458V109.236Z" fill="#0096DC"/>
<path d="M155.77 133.642C154.781 126.745 148.865 121.439 141.695 121.439C134.524 121.439 128.608 126.745 127.619 133.642H155.77Z" fill="#007DC8"/>
<path d="M143.729 80.7612H127.458V88.8969H148.814C149.375 88.8969 149.83 88.4415 149.83 87.8799V86.8629C149.83 83.4931 147.099 80.7612 143.729 80.7612Z" fill="#00AAF0"/>
<path d="M125.424 72.6255H52.2035C51.0804 72.6255 50.1696 73.5363 50.1696 74.6594V115.337H46.1018C44.9775 115.337 44.0679 116.248 44.0679 117.371C44.0679 118.494 44.9775 119.405 46.1018 119.405H58.3052C59.4295 119.405 60.3391 120.316 60.3391 121.439C60.3391 122.562 59.4295 123.473 58.3052 123.473H50.1696V131.609C50.1696 132.732 51.0804 133.642 52.2035 133.642H127.458V74.6594C127.458 73.5363 126.547 72.6255 125.424 72.6255Z" fill="#00C3FF"/>
<path d="M81.8362 123.473C79.7064 122.201 77.238 121.439 74.5762 121.439C71.9144 121.439 69.4459 122.201 67.3162 123.473H42.0339C40.9096 123.473 40 124.384 40 125.507C40 126.63 40.9096 127.541 42.0339 127.541H50.1695V131.609C50.1695 132.732 51.0803 133.643 52.2034 133.643H127.458V123.473H81.8362Z" fill="#00AAF0"/>
<path d="M141.695 145.845C147.311 145.845 151.864 141.292 151.864 135.676C151.864 130.059 147.311 125.506 141.695 125.506C136.078 125.506 131.525 130.059 131.525 135.676C131.525 141.292 136.078 145.845 141.695 145.845Z" fill="#5B5D6E"/>
<path d="M74.5763 145.845C80.1927 145.845 84.7458 141.292 84.7458 135.676C84.7458 130.059 80.1927 125.506 74.5763 125.506C68.9598 125.506 64.4067 130.059 64.4067 135.676C64.4067 141.292 68.9598 145.845 74.5763 145.845Z" fill="#5B5D6E"/>
<path d="M151.864 105.168L147.797 88.897H127.458V105.168H151.864Z" fill="#B4E6FF"/>
<path d="M74.5761 141.778C77.946 141.778 80.6778 139.046 80.6778 135.676C80.6778 132.306 77.946 129.574 74.5761 129.574C71.2062 129.574 68.4744 132.306 68.4744 135.676C68.4744 139.046 71.2062 141.778 74.5761 141.778Z" fill="#C7CFE2"/>
<path d="M74.5761 137.71C75.6994 137.71 76.61 136.799 76.61 135.676C76.61 134.553 75.6994 133.642 74.5761 133.642C73.4528 133.642 72.5422 134.553 72.5422 135.676C72.5422 136.799 73.4528 137.71 74.5761 137.71Z" fill="#7F8499"/>
<path d="M141.695 141.778C145.065 141.778 147.796 139.046 147.796 135.676C147.796 132.306 145.065 129.574 141.695 129.574C138.325 129.574 135.593 132.306 135.593 135.676C135.593 139.046 138.325 141.778 141.695 141.778Z" fill="#C7CFE2"/>
<path d="M141.695 137.71C142.818 137.71 143.729 136.799 143.729 135.676C143.729 134.553 142.818 133.642 141.695 133.642C140.572 133.642 139.661 134.553 139.661 135.676C139.661 136.799 140.572 137.71 141.695 137.71Z" fill="#7F8499"/>
<path d="M135.593 92.9648H148.814L147.797 88.897H127.458V105.168H133.559V94.9987C133.559 93.8756 134.47 92.9648 135.593 92.9648Z" fill="#9BD6FF"/>
<path d="M127.458 84.8291H143.729C144.852 84.8291 145.763 85.7399 145.763 86.863V88.8969H127.458V84.8291Z" fill="#0096DC"/>
<path d="M160 113.303H153.898V121.438H160V113.303Z" fill="#F1F4FB"/>
<path d="M149.831 113.304V117.372C149.831 119.618 151.652 121.439 153.898 121.439H155.932V113.304H149.831Z" fill="#FFC850"/>
<path d="M70.5084 86.8628H62.373C61.2487 86.8628 60.3391 87.7724 60.3391 88.8967V105.168C60.3391 106.292 61.2487 107.202 62.373 107.202C63.4973 107.202 64.4069 106.292 64.4069 105.168V99.0662H68.4747C69.599 99.0662 70.5086 98.1566 70.5086 97.0323C70.5086 95.908 69.599 94.9984 68.4747 94.9984H64.4069V90.9306H70.5086C71.6329 90.9306 72.5426 90.021 72.5426 88.8967C72.5426 87.7724 71.6327 86.8628 70.5084 86.8628Z" fill="white"/>
<path d="M88.8135 93.9815C88.8135 90.0566 85.6195 86.8628 81.6948 86.8628H76.6101C75.4858 86.8628 74.5762 87.7724 74.5762 88.8967V105.168C74.5762 106.292 75.4858 107.202 76.6101 107.202C77.7344 107.202 78.644 106.292 78.644 105.168V101.1H81.6234L85.0874 106.296C85.4786 106.884 86.1243 107.202 86.7817 107.202C87.1689 107.202 87.5605 107.091 87.9079 106.86C88.8435 106.237 89.0957 104.976 88.472 104.04L85.6905 99.8676C87.5732 98.5853 88.8135 96.426 88.8135 93.9815ZM78.644 90.9306H81.6948C83.3772 90.9306 84.7457 92.2991 84.7457 93.9815C84.7457 95.6638 83.3772 97.0323 81.6948 97.0323H78.644V90.9306Z" fill="white"/>
<path d="M101.017 90.9306C102.141 90.9306 103.051 90.021 103.051 88.8967C103.051 87.7724 102.141 86.8628 101.017 86.8628H92.8813C91.757 86.8628 90.8474 87.7724 90.8474 88.8967V105.168C90.8474 106.292 91.757 107.202 92.8813 107.202H101.017C102.141 107.202 103.051 106.292 103.051 105.168C103.051 104.044 102.141 103.134 101.017 103.134H94.9152V99.0662H98.983C100.107 99.0662 101.017 98.1566 101.017 97.0323C101.017 95.908 100.107 94.9984 98.983 94.9984H94.9152V90.9306H101.017Z" fill="white"/>
<path d="M115.254 103.134H109.153V99.0662H111.186C112.311 99.0662 113.22 98.1566 113.22 97.0323C113.22 95.908 112.311 94.9984 111.186 94.9984H109.153V90.9306H115.254C116.379 90.9306 117.288 90.021 117.288 88.8967C117.288 87.7724 116.379 86.8628 115.254 86.8628H107.119C105.994 86.8628 105.085 87.7724 105.085 88.8967V105.168C105.085 106.292 105.994 107.202 107.119 107.202H115.254C116.379 107.202 117.288 106.292 117.288 105.168C117.288 104.044 116.379 103.134 115.254 103.134Z" fill="white"/>
</g>
<defs>
<clipPath id="clip0_133_14">
<rect width="120" height="120" fill="white" transform="translate(40 35)"/>
</clipPath>
</defs>
</svg>
