<svg width="200" height="200" viewBox="0 0 200 200" fill="none" xmlns="http://www.w3.org/2000/svg">
<circle cx="100" cy="100" r="95" stroke="#99B6E9" stroke-width="10"/>
<g clip-path="url(#clip0_16_286)">
<path d="M153.188 95.9414H128.837L123.828 124.35H154.593C155.578 124.35 156.421 123.644 156.591 122.674L159.874 104.058C160.664 99.5754 157.671 95.9414 153.188 95.9414Z" fill="#C7CFE2"/>
<path d="M128.122 100H152.472C154.714 100 156.21 101.817 155.815 104.058L152.237 124.351H123.828L128.122 100Z" fill="#AFB9D2"/>
<path d="M152.076 124.351C152.302 117.47 147.333 112.175 140.179 112.175C133.025 112.175 126.19 117.47 123.989 124.351H152.076Z" fill="#959CB5"/>
<path d="M149.365 71.5908H133.131L131.7 79.7077H153.17C153.662 79.7077 154.083 79.354 154.169 78.8693L154.379 77.6785C154.972 74.3164 152.727 71.5908 149.365 71.5908Z" fill="#C7CFE2"/>
<path d="M147.821 126.38C146.833 131.983 141.489 136.526 135.886 136.526C130.282 136.526 126.541 131.983 127.529 126.38C128.517 120.777 133.86 116.234 139.464 116.234C145.067 116.234 148.809 120.776 147.821 126.38Z" fill="#5B5D6E"/>
<path d="M153.188 95.9418L151.992 79.708H131.7L128.837 95.9418H153.188Z" fill="#B4E6FF"/>
<path d="M143.762 126.38C143.17 129.742 139.963 132.467 136.601 132.467C133.239 132.467 130.994 129.742 131.587 126.38C132.18 123.018 135.386 120.292 138.748 120.292C142.11 120.292 144.355 123.018 143.762 126.38Z" fill="#C7CFE2"/>
<path d="M139.704 126.38C139.506 127.5 138.438 128.409 137.317 128.409C136.196 128.409 135.448 127.5 135.645 126.38C135.843 125.259 136.912 124.351 138.033 124.351C139.153 124.351 139.901 125.259 139.704 126.38Z" fill="#7F8499"/>
<path d="M139.101 83.7664H152.291L151.992 79.708H131.7L128.837 95.9418H134.925L136.714 85.7957C136.912 84.6751 137.98 83.7664 139.101 83.7664Z" fill="#9BD6FF"/>
<path d="M132.415 75.6494H148.649C149.769 75.6494 150.518 76.5581 150.32 77.6786L149.962 79.7078H131.699L132.415 75.6494Z" fill="#AFB9D2"/>
<path d="M153.786 104.059H159.873L158.442 112.175H152.354L153.786 104.059Z" fill="#F1F4FB"/>
<path d="M149.728 104.059L149.012 108.117C148.617 110.358 150.113 112.175 152.355 112.175H154.384L155.815 104.059H149.728Z" fill="#FFC850"/>
<path d="M132.533 63.4741H63.5395C62.4189 63.4741 61.3499 64.3828 61.1524 65.5033L53.9964 106.088H47.9085C46.7868 106.088 45.719 106.996 45.5214 108.117C45.3238 109.237 46.0713 110.146 47.1927 110.146H61.3973C62.519 110.146 63.2662 111.055 63.0686 112.175C62.871 113.296 61.8032 114.205 60.6815 114.205H52.5646L51.1335 122.321C50.9359 123.442 51.6843 124.351 52.8049 124.351H123.828L134.204 65.5033C134.402 64.3823 133.654 63.4741 132.533 63.4741Z" fill="#FF507D"/>
<path d="M84.1591 114.205C82.2581 112.936 79.9291 112.175 77.2734 112.175C74.6177 112.175 72.0208 112.936 69.6721 114.205H42.4188C41.2971 114.205 40.2292 115.113 40.0317 116.234C39.8341 117.354 40.5815 118.263 41.703 118.263H51.8491L51.1335 122.321C50.936 123.442 51.6843 124.351 52.8049 124.351H123.828L125.617 114.205H84.1591Z" fill="#D23C69"/>
<path d="M84.9147 126.38C83.9268 131.983 78.5831 136.526 72.9797 136.526C67.3762 136.526 63.6347 131.983 64.6226 126.38C65.6104 120.777 70.9542 116.234 76.5576 116.234C82.1611 116.234 85.9029 120.776 84.9147 126.38Z" fill="#5B5D6E"/>
<path d="M80.8567 126.38C80.2639 129.742 77.0577 132.467 73.6956 132.467C70.3335 132.467 68.0886 129.742 68.6813 126.38C69.2741 123.018 72.4803 120.292 75.8424 120.292C79.2048 120.292 81.4494 123.018 80.8567 126.38Z" fill="#C7CFE2"/>
<path d="M76.7981 126.38C76.6005 127.5 75.5318 128.409 74.411 128.409C73.2904 128.409 72.5421 127.5 72.7396 126.38C72.9372 125.259 74.006 124.351 75.1268 124.351C76.2475 124.351 76.9957 125.259 76.7981 126.38Z" fill="#7F8499"/>
<path d="M119.479 98.377L112.435 92.2893C111.658 91.6195 110.354 91.7978 109.524 92.6957C108.692 93.5913 108.65 94.8637 109.429 95.5354L112.246 97.971H64.9852C63.8635 97.971 62.7959 98.8785 62.5981 100C62.4003 101.122 63.148 102.029 64.2695 102.029H111.53L107.855 104.465C106.839 105.137 106.432 106.409 106.948 107.305C107.252 107.838 107.811 108.117 108.429 108.117C108.853 108.117 109.303 107.984 109.715 107.711L118.906 101.623C119.484 101.241 119.892 100.638 120.004 100C120.117 99.3623 119.923 98.7595 119.479 98.377Z" fill="white"/>
</g>
<defs>
<clipPath id="clip0_16_286">
<rect width="120" height="120" fill="white" transform="translate(40 40)"/>
</clipPath>
</defs>
</svg>
