<svg width="200" height="200" viewBox="0 0 200 200" fill="none" xmlns="http://www.w3.org/2000/svg">
<circle cx="100" cy="100" r="95" stroke="#99B6E9" stroke-width="10"/>
<path d="M109.201 63.4961C105.428 60.9258 102.707 58.2051 100.984 56.2227C99.2617 58.2051 96.5273 60.9121 92.7402 63.4961C85.6719 68.3086 77.5781 70.9609 68.623 71.4121V103.254C68.623 104.416 68.7734 105.77 69.0879 107.273C69.0879 107.273 72.9844 131.801 100.984 144.475C100.984 144.475 121.314 136.777 130.242 115.217C132.32 110.473 133.305 106.221 133.305 103.254V71.4121C124.35 70.9609 116.256 68.3086 109.201 63.4961Z" fill="white"/>
<path d="M114.602 98.4551L120.686 85.4121H112.031L105.947 98.4551H114.602ZM87.7227 85.4121L81.6387 98.4551H90.293L96.377 85.4121H87.7227ZM108.531 85.4121H99.877L93.793 98.4551H102.447L108.531 85.4121ZM70.9199 85.4121V98.4551H78.1387L84.2227 85.4121H70.9199ZM131.021 98.4551V85.4121H124.186L118.102 98.4551H131.021Z" fill="#E6E6E6"/>
<path d="M100.971 144.475C89.9787 139.717 82.0216 132.02 76.7443 124.309C73.8869 123.352 71.1388 122.326 68.5138 121.273C69.6212 123.352 70.8654 125.43 72.2462 127.426C77.1271 134.521 85.8771 144.187 99.8361 149.916C100.205 150.066 100.588 150.148 100.971 150.148C101.354 150.148 101.736 150.08 102.106 149.93C112.264 145.746 119.66 139.498 124.815 133.66C122.531 133.551 120.18 133.373 117.787 133.141C113.262 137.57 107.684 141.576 100.971 144.475ZM151.858 105.633C150.846 104.73 149.684 103.814 148.371 102.912C145.705 101.039 142.465 99.166 138.76 97.3613V69.0332C138.76 67.3652 137.42 66.0117 135.779 66.0117C126.961 65.9707 119.059 63.6055 112.277 58.9844C107.014 55.4023 104.184 51.6152 103.432 50.5352C102.871 49.7285 101.955 49.2363 100.971 49.2363C100 49.2363 99.0705 49.7148 98.5099 50.5215C97.758 51.6016 94.9142 55.3887 89.6505 58.9707C82.8556 63.5918 74.9396 65.957 66.1349 65.998C64.4943 66.0117 63.1544 67.3652 63.1544 69.0195V81.6797C61.4591 81.7891 59.8595 81.9395 58.3556 82.1445C54.9787 82.5957 52.1076 83.2793 49.7697 84.1816C45.8048 85.7266 43.4943 87.8867 42.8927 90.6074C42.3185 93.2051 43.3849 95.9941 46.0373 98.9199L46.0509 98.9336C46.1056 98.9883 46.1466 99.043 46.2013 99.0977C48.6759 101.75 52.422 104.457 57.3439 107.15C57.672 107.328 58.0138 107.52 58.3556 107.697C60.1876 108.668 62.1564 109.625 64.2209 110.541C64.8224 112.811 65.6701 115.176 66.7228 117.568C69.1564 118.621 71.7267 119.633 74.4201 120.604C72.9708 118.088 71.7951 115.613 70.8927 113.289C78.4533 116.174 87.0119 118.717 96.0216 120.713C106.139 122.955 116.037 124.322 124.883 124.746C123.502 126.729 121.957 128.697 120.221 130.611C122.559 130.803 124.842 130.939 127.043 131.008C128.027 129.764 128.902 128.561 129.682 127.426C130.256 126.592 130.803 125.744 131.336 124.883C133.236 124.869 135.055 124.814 136.819 124.691C141.399 124.391 145.281 123.748 148.385 122.777C149.069 122.559 149.711 122.34 150.313 122.094C151.502 121.615 152.541 121.068 153.416 120.48C152.965 119.715 152.391 118.977 151.762 118.279C150.86 118.881 149.725 119.414 148.385 119.879C145.418 120.918 141.426 121.643 136.641 121.957C135.451 122.039 134.221 122.094 132.949 122.121C136.613 115.449 138.774 108.572 138.774 103.24V100.41C142.602 102.352 145.856 104.348 148.385 106.303C148.986 106.768 149.533 107.219 150.053 107.684C152.281 109.666 154.811 112.578 154.236 115.203C154.141 115.613 153.977 115.996 153.744 116.379C154.442 117.131 155.029 117.883 155.494 118.621C156.205 117.76 156.67 116.816 156.902 115.791C157.586 112.646 155.891 109.229 151.858 105.633ZM58.6564 104.73C58.5607 104.676 58.4513 104.621 58.3556 104.566C53.7208 102.01 50.2072 99.4121 48.0333 97.0059C48.0197 97.0059 48.0197 97.0195 48.006 97.0195C47.1447 96.1445 46.5841 95.1875 46.3791 94.8184C45.6134 93.4922 45.3126 92.2754 45.5587 91.1816C46.215 88.1875 50.8908 85.9453 58.3556 84.8926C59.8458 84.6875 61.4455 84.5234 63.1544 84.4141V103.254C63.1544 104.484 63.2775 105.811 63.4962 107.191C61.8009 106.385 60.174 105.564 58.6564 104.73ZM133.305 103.254C133.305 107.588 131.186 114.725 126.633 122.08C117.555 121.766 107.219 120.385 96.6232 118.033C86.8751 115.873 77.674 113.084 69.7443 109.898C68.9923 107.328 68.6232 105.045 68.6232 103.254V71.4121C77.5783 70.9609 85.672 68.3086 92.7404 63.4961C96.5275 60.9258 99.2482 58.2051 100.985 56.2227C102.707 58.2051 105.428 60.9121 109.201 63.4961C116.256 68.3086 124.35 70.9609 133.305 71.4121V103.254Z" fill="#005BFF"/>
<path d="M63.1133 90.5938C57.6309 90.9355 53.1328 91.7832 49.7695 93.0957C48.457 93.6016 47.3223 94.1895 46.3789 94.832C46.7891 95.543 47.3496 96.2676 48.0332 97.0332C50.9316 95.1191 56.168 93.8203 63.1133 93.3555V90.5938Z" fill="#06F3FF"/>
<path d="M46.3653 94.8184C46.5703 95.1875 47.1446 96.1445 47.9922 97.0195C48.0059 97.0195 48.0059 97.0059 48.0196 97.0059C47.3496 96.2539 46.7891 95.5293 46.3653 94.8184C46.3789 94.8184 46.3789 94.8184 46.3653 94.8184ZM155.48 118.621C155.002 117.883 154.414 117.131 153.73 116.379C153.17 115.777 152.555 115.162 151.857 114.547C148.74 111.771 144.188 108.914 138.596 106.193C138.541 106.562 138.295 108.203 138.131 109.023C143.162 111.525 147.236 114.109 150.039 116.598C150.613 117.104 151.201 117.678 151.748 118.279C152.377 118.963 152.951 119.715 153.402 120.48C154.1 121.67 154.482 122.928 154.223 124.117C153.43 127.686 146.854 130.215 136.641 130.885C133.66 131.076 130.434 131.117 127.043 131.008C124.842 130.939 122.559 130.803 120.221 130.611C112.811 129.996 104.799 128.766 96.6231 126.947C88.7344 125.197 81.2149 123.037 74.4336 120.59C71.7403 119.619 69.17 118.607 66.7364 117.555C63.8379 116.297 61.1309 114.984 58.67 113.645C49.6875 108.736 44.793 103.664 45.5723 100.096C45.668 99.6855 45.8321 99.2891 46.0645 98.9199L46.0508 98.9062C45.9278 98.7832 45.1485 97.9902 44.3008 96.6777C43.5899 97.5391 43.125 98.4824 42.8926 99.5078C42.3047 102.16 43.4258 105.018 46.2149 107.998C48.6895 110.65 52.4356 113.357 57.3575 116.051C60.6934 117.869 64.4532 119.633 68.541 121.273C71.1524 122.326 73.9004 123.338 76.7715 124.309C82.7871 126.332 89.2813 128.137 96.0352 129.627C103.527 131.281 110.897 132.471 117.801 133.141C120.207 133.373 122.559 133.551 124.828 133.66C126.838 133.756 128.779 133.811 130.666 133.811C132.799 133.811 134.863 133.742 136.818 133.619C142.41 133.25 146.949 132.375 150.313 131.021C154.1 129.49 156.314 127.371 156.902 124.719C157.326 122.777 156.848 120.74 155.48 118.621Z" fill="#06F3FF"/>
<path d="M46.0508 98.9199C46.0508 98.9199 46.0371 98.9199 46.0371 98.9062C46.0371 98.9062 46.0508 98.9063 46.0508 98.9199Z" fill="#06F3FF"/>
</svg>
