<svg width="200" height="200" viewBox="0 0 200 200" fill="none" xmlns="http://www.w3.org/2000/svg">
<circle cx="100" cy="100" r="95" stroke="#99B6E9" stroke-width="10"/>
<g clip-path="url(#clip0_16_375)">
<path d="M103.845 160H103.693C92.4362 159.981 82.5295 157.269 74.8663 152.444C70.0366 149.414 66.0814 145.542 63.2101 140.979C59.4071 134.9 57.5438 127.606 58.0951 119.395C58.1902 117.955 58.3613 116.608 58.5705 115.318C61.0236 100.337 70.5499 93.8652 74.7713 79.0523C75.1706 77.7055 75.5128 76.2843 75.798 74.7878C75.9882 73.8339 76.1402 72.8427 76.2734 71.8141C76.5017 70.2055 76.4445 68.3912 76.1974 66.5022C76.1783 66.2966 76.1402 66.1096 76.1214 65.9038C74.4482 54.5137 66.1195 40 66.1195 40C75.2657 40.1683 75.3608 47.7058 84.7159 47.7058C94.1666 47.7058 94.1666 40 103.617 40C113.068 40 113.068 47.7058 122.518 47.7058C125.389 47.7058 127.386 46.9952 129.04 46.0037C132.273 44.0772 134.212 41.0849 138.776 40.2433C139.574 40.075 140.449 40 141.438 40C141.438 40 141.038 40.6734 140.411 41.8516C138.148 46.116 132.748 56.9638 131.417 65.9038C131.398 66.1096 131.36 66.2966 131.341 66.5022C131.094 68.3912 131.056 70.2055 131.265 71.8141C131.398 72.8427 131.569 73.8339 131.74 74.7878C132.025 76.2841 132.368 77.7053 132.767 79.0523C133.109 80.268 133.489 81.4277 133.908 82.5311C134.516 84.2331 135.22 85.8229 135.962 87.3379C141.134 97.9612 148.435 104.825 149.443 119.395C151.078 143.541 131.645 159.944 103.845 160Z" fill="#F6EDC9"/>
<path d="M117.802 120.667C117.327 119.264 116.528 118.067 115.444 117.113C114.57 116.253 113.543 115.598 112.345 115.112C111.147 114.644 109.607 114.27 107.781 114.009L107.42 113.953L102.989 113.279C102.115 113.186 101.392 112.999 100.822 112.737C100.574 112.625 100.346 112.512 100.118 112.381C99.8328 112.194 99.5667 112.007 99.3193 111.783C98.9012 111.39 98.6159 110.941 98.4446 110.455C98.2735 109.987 98.1975 109.482 98.1975 108.958C98.1975 107.593 98.6919 106.415 99.6806 105.442C99.8138 105.311 99.9658 105.18 100.118 105.068C101.107 104.339 102.514 103.964 104.339 103.964C105.328 103.964 106.355 104.058 107.42 104.245C107.781 104.301 108.142 104.357 108.504 104.451C109.968 104.75 111.318 105.498 112.573 106.695L117.517 101.87C115.805 100.205 113.904 99.0271 111.831 98.3162C110.5 97.8674 109.036 97.5496 107.42 97.3998C106.507 97.3065 105.556 97.269 104.567 97.269C102.97 97.269 101.487 97.4186 100.118 97.7366C99.6236 97.8487 99.1483 97.9984 98.6919 98.1479C96.9615 98.7463 95.4973 99.5694 94.2995 100.617C93.1016 101.664 92.1697 102.917 91.5423 104.395C90.8959 105.854 90.5916 107.462 90.5916 109.239C90.5916 112.606 91.5423 115.187 93.4629 117.001C94.3564 117.861 95.4213 118.553 96.6763 119.077C97.6461 119.507 98.787 119.844 100.118 120.087C100.479 120.162 100.86 120.218 101.24 120.274L106.032 120.985C106.564 121.078 107.021 121.153 107.42 121.247C107.762 121.321 108.047 121.396 108.275 121.49C108.77 121.677 109.226 121.957 109.625 122.331C110.462 123.136 110.881 124.221 110.881 125.586C110.881 127.194 110.272 128.41 109.074 129.252C108.599 129.588 108.047 129.85 107.42 130.056C106.412 130.374 105.176 130.524 103.712 130.524C102.476 130.524 101.278 130.411 100.118 130.206C99.5667 130.093 99.0151 129.962 98.4637 129.813C96.8283 129.326 95.3453 128.466 94.0712 127.213L88.9941 132.188C90.9528 134.152 93.1205 135.517 95.5164 136.265C96.9425 136.714 98.4637 137.032 100.118 137.219C101.259 137.35 102.438 137.406 103.655 137.406C104.967 137.406 106.222 137.294 107.42 137.088C108.142 136.976 108.865 136.808 109.549 136.602C111.375 136.06 112.953 135.293 114.284 134.264C115.615 133.254 116.661 132.001 117.422 130.524C118.163 129.046 118.543 127.344 118.543 125.436C118.544 123.659 118.297 122.07 117.802 120.667Z" fill="#928F65"/>
<path d="M107.418 97.5275V104.237C106.35 104.059 105.322 103.972 104.336 103.972C102.519 103.972 101.114 104.337 100.125 105.07V97.5275C100.125 95.5532 101.767 93.9404 103.771 93.9404C104.774 93.9404 105.687 94.3429 106.347 94.9949C106.981 95.6155 107.384 96.4639 107.415 97.3998C107.418 97.4432 107.418 97.4837 107.418 97.5275Z" fill="#928F65"/>
<path d="M107.418 113.953V121.243C107.028 121.156 106.565 121.072 106.026 120.994L101.234 120.273C100.851 120.217 100.483 120.155 100.125 120.086V112.378C100.34 112.506 100.568 112.625 100.813 112.731C101.396 112.99 102.119 113.177 102.982 113.286L107.418 113.953Z" fill="#928F65"/>
<path d="M103.714 130.529C105.17 130.529 106.403 130.37 107.418 130.049V137.142C107.418 139.113 105.779 140.729 103.771 140.729C101.792 140.729 100.166 139.154 100.128 137.217C100.125 137.192 100.125 137.167 100.125 137.142V130.202C101.279 130.42 102.478 130.529 103.714 130.529Z" fill="#928F65"/>
<path d="M137.654 86.496C136.223 87.4136 134.598 87.8852 132.893 87.8852C132.445 87.8852 131.992 87.8531 131.534 87.7872C129.706 87.5252 127.884 86.7515 126.116 85.4873C125.279 84.8882 124.467 84.1842 123.697 83.3969C123.631 83.3299 123.565 83.2612 123.5 83.1927C122.32 81.9541 121.245 80.5195 120.335 78.9745C120.278 78.8805 120.224 78.7865 120.17 78.6923C119.555 77.6163 119.021 76.4903 118.587 75.3405C118.003 73.7943 117.619 72.2695 117.434 70.7985C117.099 68.1102 117.427 65.5982 118.42 63.4474C118.513 63.2486 118.61 63.0524 118.713 62.8588C119.397 61.5813 121.137 61.0291 122.602 61.6256C122.973 61.7774 123.29 61.987 123.548 62.2382C123.642 62.331 123.728 62.429 123.805 62.5312C124.016 62.8094 124.162 63.1209 124.236 63.4474C124.342 63.9203 124.298 64.424 124.074 64.8995C124.057 64.9399 124.037 64.9788 124.016 65.0191C123.957 65.1278 123.902 65.2394 123.851 65.3524C123.121 66.9255 123.002 68.8305 123.333 70.7985C123.418 71.2996 123.532 71.8047 123.672 72.3086C123.732 72.5235 123.797 72.7399 123.866 72.9548C124.535 75.0316 125.633 77.0737 126.981 78.7717C127.058 78.8685 127.135 78.9639 127.214 79.0579C128.016 80.0292 128.9 80.8769 129.827 81.5404C131.606 82.8126 133.073 83.0974 134.185 82.3842C135.486 81.5486 137.318 81.7917 138.276 82.927C139.235 84.0618 138.956 85.6605 137.654 86.496Z" fill="#5FC0B8"/>
<path d="M131.74 74.7883C131.569 73.8344 131.398 72.8432 131.265 71.8145C131.056 70.206 131.094 68.3917 131.341 66.5027C131.36 66.2971 131.398 66.1101 131.417 65.9043C130.238 66.0913 129.059 66.2786 127.861 66.4469C126.359 66.6527 124.857 66.8395 123.336 66.989C122.556 67.1012 121.795 67.1763 120.997 67.2323C119.799 67.363 118.582 67.4751 117.365 67.5688C113.828 67.8494 110.253 68.0177 106.622 68.0552C105.671 68.0927 104.72 68.0927 103.769 68.0927C94.2238 68.0927 84.9444 67.3258 76.1216 65.9043C76.1404 66.1101 76.1785 66.2971 76.1976 66.5027C76.4447 68.3917 76.5019 70.206 76.2736 71.8145C76.1404 72.8432 75.9884 73.8344 75.7982 74.7883C75.513 76.2845 75.1708 77.7058 74.7715 79.0527C80.8372 79.9691 87.1121 80.605 93.5392 80.923C96.905 81.0913 100.309 81.1848 103.769 81.1848C109.74 81.1848 115.597 80.923 121.282 80.418C122.841 80.2872 124.381 80.1374 125.903 79.9504C126.53 79.8944 127.158 79.8196 127.785 79.7259C129.116 79.5761 130.428 79.3893 131.721 79.202C132.063 79.1645 132.425 79.1085 132.767 79.0525C132.368 77.7058 132.025 76.2845 131.74 74.7883Z" fill="#85CBBE"/>
<path d="M131.662 78.2475C131.818 80.2127 131.758 82.1442 131.486 83.9292C131.472 84.0319 131.454 84.1334 131.437 84.2365C131.29 85.1229 131.088 85.9706 130.835 86.7659C130.146 88.9095 129.104 90.6202 127.739 91.8506C127.397 92.1567 127.037 92.4338 126.663 92.6738C125.235 93.5895 123.578 94.0184 121.805 93.9206C120.193 93.8316 118.956 92.4727 119.047 90.8852C119.137 89.2978 120.519 88.0847 122.133 88.1721C123.511 88.2499 124.56 87.1917 125.253 85.0313C125.561 84.0713 125.759 83.0006 125.85 81.8674C125.861 81.7362 125.871 81.6033 125.877 81.4692C126.012 79.1695 125.717 76.6413 125.035 74.2842C124.963 74.04 124.889 73.7991 124.81 73.5572C124.775 73.4487 124.737 73.3404 124.699 73.2338C124.545 72.7856 124.376 72.3478 124.191 71.9217C124.043 71.5765 123.885 71.2397 123.718 70.9125C123.288 70.0629 122.797 69.2752 122.244 68.572C121.745 67.9338 121.197 67.3671 120.6 66.892C120.458 66.7774 120.311 66.6675 120.16 66.5656C120.03 66.4727 119.899 66.3877 119.765 66.3059C119.393 66.0778 119.09 65.7799 118.863 65.4417C118.839 65.4054 118.815 65.3677 118.794 65.3311C118.631 65.0644 118.516 64.7747 118.45 64.474C118.423 64.3559 118.403 64.2356 118.395 64.1147C118.34 63.514 118.474 62.8927 118.823 62.3416C119.674 60.9919 121.479 60.577 122.851 61.4133C123.232 61.6451 123.601 61.8977 123.96 62.1689C124.935 62.9034 125.84 63.7826 126.661 64.7876C127.606 65.9433 128.444 67.2691 129.154 68.7359C129.764 69.9968 130.282 71.3644 130.692 72.8198C130.724 72.9239 130.751 73.0284 130.78 73.1327C131.203 74.6906 131.486 76.2947 131.631 77.8826C131.642 78.0042 131.654 78.1266 131.662 78.2475Z" fill="#96D3DA"/>
<path opacity="0.06" d="M135.956 87.3198C136.543 87.1021 137.116 86.8415 137.654 86.4962C138.956 85.6609 139.235 84.062 138.277 82.9267C137.318 81.7916 135.487 81.5483 134.186 82.3841C134.098 82.4404 133.994 82.45 133.903 82.4938C133.497 81.3908 133.11 80.2569 132.767 79.0527C132.368 77.706 132.026 76.2847 131.74 74.7883C131.626 74.1505 131.525 73.4715 131.422 72.8003L62.811 140.287C70.0669 152.517 84.9781 159.962 103.693 160H103.845C131.645 159.944 151.079 143.541 149.443 119.395C148.442 104.826 141.134 97.9555 135.956 87.3198Z" fill="#040000"/>
</g>
<defs>
<clipPath id="clip0_16_375">
<rect width="122" height="120" fill="white" transform="translate(58 40)"/>
</clipPath>
</defs>
</svg>
