<svg width="200" height="200" viewBox="0 0 200 200" fill="none" xmlns="http://www.w3.org/2000/svg">
<circle cx="100" cy="100" r="95" stroke="#99B6E9" stroke-width="10"/>
<path d="M144.1 75.6249L106.6 47.7999C104.709 46.3174 102.375 45.5117 99.9719 45.5117C97.5688 45.5117 95.235 46.3174 93.3438 47.7999L55.825 75.6249C54.4009 76.7378 53.2488 78.1604 52.4561 79.7847C51.6634 81.409 51.251 83.1925 51.25 84.9999V141.25C51.25 144.234 52.4353 147.095 54.545 149.205C56.6548 151.315 59.5163 152.5 62.5 152.5H135.625C141.7 152.5 148.75 147.587 148.75 141.25V84.9999C148.737 83.1868 148.312 81.4004 147.506 79.776C146.701 78.1517 145.536 76.7321 144.1 75.6249Z" fill="#414042"/>
<path d="M148.75 84.9999V141.25C148.75 147.587 141.7 152.5 135.625 152.5H100V45.3999C102.415 45.3987 104.76 46.2112 106.656 47.7062L144.1 75.6249C145.536 76.7321 146.701 78.1517 147.506 79.776C148.312 81.4003 148.737 83.1868 148.75 84.9999Z" fill="#231F20"/>
<path d="M100 71.875C104.142 71.875 107.5 68.5171 107.5 64.375C107.5 60.2329 104.142 56.875 100 56.875C95.8579 56.875 92.5 60.2329 92.5 64.375C92.5 68.5171 95.8579 71.875 100 71.875Z" fill="#231F20"/>
<path d="M123.212 91.431L99.9998 113.593L81.9623 130.806C81.2701 131.483 80.3429 131.866 79.3748 131.875C78.6245 131.876 77.8912 131.652 77.2697 131.231C76.6482 130.811 76.167 130.214 75.8883 129.517C75.6097 128.821 75.5464 128.057 75.7067 127.324C75.8669 126.591 76.2434 125.923 76.7873 125.406L99.9998 103.225L118.037 86.0122C118.388 85.647 118.809 85.3566 119.274 85.1583C119.74 84.9601 120.241 84.8583 120.747 84.8589C121.254 84.8595 121.755 84.9626 122.22 85.162C122.685 85.3614 123.105 85.6529 123.455 86.0189C123.804 86.385 124.076 86.8181 124.254 87.292C124.432 87.766 124.512 88.271 124.489 88.7767C124.466 89.2824 124.342 89.7783 124.122 90.2344C123.903 90.6906 123.593 91.0976 123.212 91.431Z" fill="#FFF200"/>
<path d="M96.25 93.4188C96.2463 91.0091 95.5283 88.6546 94.1869 86.6529C92.8455 84.6511 90.9408 83.0919 88.7135 82.1724C86.4862 81.2528 84.0363 81.0141 81.6734 81.4865C79.3104 81.9588 77.1406 83.1211 75.438 84.8263C73.7354 86.5315 72.5766 88.7031 72.1078 91.0667C71.6391 93.4304 71.8815 95.8799 72.8045 98.1058C73.7275 100.332 75.2896 102.234 77.2934 103.572C79.2972 104.911 81.6528 105.625 84.0625 105.625C87.2965 105.62 90.3964 104.332 92.6815 102.043C94.9666 99.7547 96.25 96.6528 96.25 93.4188ZM79.375 93.4188C79.3787 92.4925 79.6568 91.588 80.1741 90.8196C80.6914 90.0513 81.4248 89.4534 82.2816 89.1015C83.1385 88.7495 84.0804 88.6594 84.9884 88.8424C85.8965 89.0254 86.7299 89.4733 87.3836 90.1296C88.0373 90.7859 88.4819 91.6211 88.6612 92.5299C88.8406 93.4387 88.7467 94.3802 88.3914 95.2356C88.036 96.0911 87.4352 96.8221 86.6648 97.3363C85.8943 97.8505 84.9888 98.125 84.0625 98.125C83.4453 98.125 82.8343 98.0031 82.2643 97.7664C81.6944 97.5297 81.1768 97.1827 80.7413 96.7454C80.3058 96.3082 79.9609 95.7892 79.7264 95.2183C79.4919 94.6475 79.3725 94.0359 79.375 93.4188Z" fill="#FFF200"/>
<path d="M115.938 111.25C113.527 111.25 111.171 111.965 109.166 113.304C107.162 114.643 105.6 116.547 104.678 118.774C103.755 121.001 103.514 123.451 103.984 125.815C104.454 128.179 105.615 130.351 107.32 132.055C109.024 133.76 111.196 134.921 113.56 135.391C115.924 135.861 118.374 135.62 120.601 134.697C122.828 133.775 124.732 132.213 126.071 130.209C127.41 128.204 128.125 125.848 128.125 123.438C128.12 120.207 126.834 117.11 124.55 114.825C122.265 112.541 119.168 111.255 115.938 111.25ZM115.938 128.125C115.01 128.125 114.104 127.85 113.333 127.335C112.562 126.82 111.962 126.088 111.607 125.231C111.252 124.375 111.159 123.432 111.34 122.523C111.521 121.614 111.967 120.778 112.623 120.123C113.278 119.467 114.114 119.021 115.023 118.84C115.932 118.659 116.875 118.752 117.731 119.107C118.588 119.462 119.32 120.062 119.835 120.833C120.35 121.604 120.625 122.51 120.625 123.438C120.625 124.681 120.131 125.873 119.252 126.752C118.373 127.631 117.181 128.125 115.938 128.125Z" fill="#FFF200"/>
<path d="M146.875 60.625H100C97.9289 60.625 96.25 62.3039 96.25 64.375C96.25 66.4461 97.9289 68.125 100 68.125H146.875C148.946 68.125 150.625 66.4461 150.625 64.375C150.625 62.3039 148.946 60.625 146.875 60.625Z" fill="#FFBE00"/>
<path d="M123.344 86.1436C123.004 85.7862 122.597 85.4993 122.147 85.2992C121.696 85.0992 121.211 84.9899 120.718 84.9777C120.225 84.9655 119.735 85.0506 119.275 85.2282C118.815 85.4057 118.394 85.6722 118.037 86.0124L100 103.225V113.594L123.213 91.4311C123.929 90.746 124.344 89.8053 124.369 88.8145C124.394 87.8237 124.025 86.8634 123.344 86.1436Z" fill="#FFBE00"/>
<path d="M115.938 111.25C113.527 111.25 111.171 111.965 109.166 113.304C107.162 114.643 105.6 116.547 104.678 118.774C103.755 121.001 103.514 123.451 103.984 125.815C104.454 128.179 105.615 130.351 107.32 132.055C109.024 133.76 111.196 134.921 113.56 135.391C115.924 135.861 118.374 135.62 120.601 134.697C122.828 133.775 124.732 132.213 126.071 130.209C127.41 128.204 128.125 125.848 128.125 123.438C128.12 120.207 126.834 117.11 124.55 114.825C122.265 112.541 119.168 111.255 115.938 111.25ZM115.938 128.125C115.01 128.125 114.104 127.85 113.333 127.335C112.562 126.82 111.962 126.088 111.607 125.231C111.252 124.375 111.159 123.432 111.34 122.523C111.521 121.614 111.967 120.778 112.623 120.123C113.278 119.467 114.114 119.021 115.023 118.84C115.932 118.659 116.875 118.752 117.731 119.107C118.588 119.462 119.32 120.062 119.835 120.833C120.35 121.604 120.625 122.51 120.625 123.438C120.625 124.681 120.131 125.873 119.252 126.752C118.373 127.631 117.181 128.125 115.938 128.125Z" fill="#FFBE00"/>
</svg>
