<svg width="200" height="200" viewBox="0 0 200 200" fill="none" xmlns="http://www.w3.org/2000/svg">
<circle cx="100" cy="100" r="95" stroke="#99B6E9" stroke-width="10"/>
<g clip-path="url(#clip0_16_275)">
<path d="M70.171 63.3391C70.171 57.0394 75.2787 51.9297 81.5804 51.9297C87.8821 51.9297 92.9897 57.0374 92.9897 63.3391C92.9897 69.6407 87.8821 74.7484 81.5804 74.7484C75.2787 74.7484 70.171 69.6407 70.171 63.3391ZM86.7119 80.0667L91.7501 77.5198L90.7309 75.5033L85.6947 78.0502L86.7119 80.0667ZM167.994 56.9639L165.568 82.103C165.507 82.7308 164.944 83.1897 164.319 83.1321L148.135 81.5646C147.508 81.505 147.045 80.9428 147.102 80.319L147.722 73.9478L145.281 73.7134C144.577 74.5398 143.636 75.2332 142.428 75.6961C131.654 79.8343 120.668 82.9493 109.461 85.236C114.171 90.5662 118.141 96.5718 121.178 102.969C121.528 103.696 121.802 104.437 122.025 105.19C122.249 105.48 122.464 105.782 122.668 106.13C129.856 118.729 141.279 130.567 155.476 134.845C163.721 137.33 160.206 150.251 151.918 147.75C136.962 143.238 124.317 132.401 115.377 119.607C101.302 121.808 79.1467 126.453 76.6276 142.638C75.3025 151.145 62.4032 147.524 63.7184 139.08C66.3268 122.295 82.8717 113.824 98.8901 109.475C95.483 103.638 91.2912 98.5525 85.9629 94.0766C85.8616 93.9892 85.7722 93.8918 85.6749 93.8005C73.3735 95.4931 61.4774 92.3442 50.9938 85.091C43.9452 80.2157 50.6303 68.6077 57.7485 73.5326C66.9248 81.4574 84.2445 80.1938 84.3498 80.021L90.4746 84.0658L87.4907 80.8296L91.7441 78.4496L92.9897 82.5798V74.6392C93.0354 74.6312 93.0811 74.6133 93.1268 74.6074C108.802 72.5512 124.115 68.4666 138.866 62.8007C141.621 61.7438 143.834 62.5543 145.241 64.2013L145.531 61.2213L148.914 61.5471L149.532 55.1818C149.598 54.5541 150.156 54.0932 150.782 54.1547L166.965 55.7163C167.597 55.7759 168.056 56.3361 167.994 56.9639ZM148.809 62.7073L146.588 62.4927L146.266 65.8244C147.194 67.8964 147.22 70.5129 146.057 72.6207L147.837 72.7955L148.809 62.7073Z" fill="#091128"/>
</g>
<defs>
<clipPath id="clip0_16_275">
<rect width="120" height="120" fill="white" transform="translate(48 40)"/>
</clipPath>
</defs>
</svg>
