<svg width="200" height="200" viewBox="0 0 200 200" fill="none" xmlns="http://www.w3.org/2000/svg">
<circle cx="100" cy="100" r="95" stroke="#99B6E9" stroke-width="10"/>
<path fill-rule="evenodd" clip-rule="evenodd" d="M58.75 56.875H150.625V68.125H58.75V56.875Z" fill="#3E4F59"/>
<path fill-rule="evenodd" clip-rule="evenodd" d="M58.75 68.125H150.625V143.125H58.75V68.125Z" fill="#ACBEC2"/>
<path fill-rule="evenodd" clip-rule="evenodd" d="M58.75 68.125V143.125H114.568C125.396 133.352 134.453 121.075 140.648 107.77C146.843 94.4649 149.914 80.6982 149.49 68.125H58.75Z" fill="#E8EDEE"/>
<path fill-rule="evenodd" clip-rule="evenodd" d="M62.5 55C59.4156 55 56.875 57.5406 56.875 60.625V135.625C56.875 136.661 57.7145 137.5 58.75 137.5C59.7855 137.5 60.625 136.661 60.625 135.625V60.625C60.625 59.5673 61.4423 58.75 62.5 58.75H146.875C147.933 58.75 148.75 59.5673 148.75 60.625V66.25H70C68.9645 66.25 68.125 67.0895 68.125 68.125C68.125 69.1605 68.9645 70 70 70H148.75V139.375C148.75 140.433 147.933 141.25 146.875 141.25H55C53.9645 141.25 53.125 142.089 53.125 143.125C53.125 144.161 53.9645 145 55 145H146.875C149.959 145 152.5 142.459 152.5 139.375C152.5 113.125 152.5 86.875 152.5 60.625C152.5 57.5406 149.959 55 146.875 55H62.5Z" fill="black"/>
<path fill-rule="evenodd" clip-rule="evenodd" d="M143.125 60.625C142.089 60.625 141.25 61.4645 141.25 62.5C141.25 63.5355 142.089 64.375 143.125 64.375C144.161 64.375 145 63.5355 145 62.5C145 61.4645 144.161 60.625 143.125 60.625Z" fill="#ED7161"/>
<path fill-rule="evenodd" clip-rule="evenodd" d="M135.625 60.625C134.589 60.625 133.75 61.4645 133.75 62.5C133.75 63.5355 134.589 64.375 135.625 64.375C136.661 64.375 137.5 63.5355 137.5 62.5C137.5 61.4645 136.661 60.625 135.625 60.625Z" fill="#ECBA16"/>
<path fill-rule="evenodd" clip-rule="evenodd" d="M128.125 60.625C127.089 60.625 126.25 61.4645 126.25 62.5C126.25 63.5355 127.089 64.375 128.125 64.375C129.161 64.375 130 63.5355 130 62.5C130 61.4645 129.161 60.625 128.125 60.625Z" fill="#42B05C"/>
<path fill-rule="evenodd" clip-rule="evenodd" d="M49.375 141.25C48.8777 141.25 48.4008 141.448 48.0492 141.799C47.6976 142.151 47.5 142.628 47.5 143.125C47.5 143.622 47.6976 144.099 48.0492 144.451C48.4008 144.802 48.8777 145 49.375 145C49.8723 145 50.3492 144.802 50.7008 144.451C51.0524 144.099 51.25 143.622 51.25 143.125C51.25 142.628 51.0524 142.151 50.7008 141.799C50.3492 141.448 49.8723 141.25 49.375 141.25Z" fill="black"/>
<path fill-rule="evenodd" clip-rule="evenodd" d="M64.375 66.25C63.3395 66.25 62.5 67.0895 62.5 68.125C62.5 69.1605 63.3395 70 64.375 70C65.4105 70 66.25 69.1605 66.25 68.125C66.25 67.0895 65.4105 66.25 64.375 66.25Z" fill="black"/>
<path fill-rule="evenodd" clip-rule="evenodd" d="M126.821 80.9126L124.169 96.8224L120.192 92.845L110.911 102.126C110.208 102.829 109.254 103.224 108.259 103.224C107.265 103.224 106.311 102.829 105.608 102.126L100.304 96.8224L88.9441 108.183C88.5959 108.531 88.1825 108.807 87.7275 108.995C87.2725 109.184 86.7849 109.281 86.2924 109.281C85.8 109.281 85.3124 109.184 84.8574 108.995C84.4024 108.807 83.989 108.531 83.6408 108.183C82.9375 107.479 82.5425 106.525 82.5425 105.531C82.5425 104.536 82.9375 103.583 83.6408 102.879L97.6526 88.8675C98.3559 88.1643 99.3097 87.7693 100.304 87.7693C101.299 87.7693 102.253 88.1643 102.956 88.8675L108.259 94.1708L114.888 87.5417L110.911 83.5642L126.821 80.9126Z" fill="#FE73C5"/>
<path fill-rule="evenodd" clip-rule="evenodd" d="M107.672 103.178C106.89 103.055 106.167 102.687 105.607 102.127L101.538 98.0549C101.162 96.6606 100.96 95.2401 100.938 93.8142C100.949 91.9006 101.281 89.9966 101.926 88.1526C102.307 88.3313 102.655 88.5727 102.955 88.8667L108.258 94.1694L114.89 87.541L110.909 83.564L126.821 80.9126L124.17 96.8208L120.193 92.8438L110.909 102.127C110.491 102.545 109.98 102.858 109.417 103.041C108.854 103.224 108.256 103.271 107.672 103.178Z" fill="#FE93D3"/>
<path fill-rule="evenodd" clip-rule="evenodd" d="M126.25 107.617H120.625C119.586 107.617 118.75 108.453 118.75 109.492V130.117C118.75 131.156 119.586 131.992 120.625 131.992H126.25C127.289 131.992 128.125 131.156 128.125 130.117V109.492C128.125 108.453 127.289 107.617 126.25 107.617Z" fill="#0075D3"/>
<path fill-rule="evenodd" clip-rule="evenodd" d="M124.375 113.242C125.691 113.242 126.985 113.848 128.125 115V130.117C128.125 131.156 127.289 131.992 126.25 131.992H120.625C119.586 131.992 118.75 131.156 118.75 130.117V117.688C119.454 116.291 120.319 115.172 121.289 114.406C122.259 113.639 123.311 113.242 124.375 113.242Z" fill="#0588E2"/>
<path fill-rule="evenodd" clip-rule="evenodd" d="M126.25 105.742C128.295 105.742 130 107.447 130 109.492V130.117C130 132.162 128.295 133.867 126.25 133.867H120.625C118.58 133.867 116.875 132.162 116.875 130.117V116.992C116.875 116.495 117.073 116.018 117.424 115.666C117.776 115.315 118.253 115.117 118.75 115.117C119.247 115.117 119.724 115.315 120.076 115.666C120.427 116.018 120.625 116.495 120.625 116.992V130.117H126.25V109.492H120.625C120.625 109.989 120.427 110.466 120.076 110.818C119.724 111.17 119.247 111.367 118.75 111.367C118.253 111.367 117.776 111.17 117.424 110.818C117.073 110.466 116.875 109.989 116.875 109.492C116.875 107.447 118.58 105.742 120.625 105.742H126.25Z" fill="black"/>
<path fill-rule="evenodd" clip-rule="evenodd" d="M107.5 115.117H101.875C100.836 115.117 100 115.953 100 116.992V130.117C100 131.156 100.836 131.992 101.875 131.992H107.5C108.539 131.992 109.375 131.156 109.375 130.117V116.992C109.375 115.953 108.539 115.117 107.5 115.117Z" fill="#0075D3"/>
<path fill-rule="evenodd" clip-rule="evenodd" d="M105.625 120.742C106.941 120.742 108.235 121.348 109.375 122.5V130.117C109.375 131.156 108.539 131.992 107.5 131.992H101.875C100.836 131.992 100 131.156 100 130.117V125.188C100.704 123.791 101.569 122.672 102.539 121.906C103.509 121.139 104.561 120.742 105.625 120.742Z" fill="#0588E2"/>
<path fill-rule="evenodd" clip-rule="evenodd" d="M107.5 113.242C109.545 113.242 111.25 114.947 111.25 116.992V130.117C111.25 132.162 109.545 133.867 107.5 133.867H101.875C99.8299 133.867 98.125 132.162 98.125 130.117V124.492C98.125 123.995 98.3226 123.518 98.6742 123.166C99.0258 122.815 99.5027 122.617 100 122.617C100.497 122.617 100.974 122.815 101.326 123.166C101.677 123.518 101.875 123.995 101.875 124.492V130.117H107.5V116.992H101.875C101.875 117.489 101.677 117.966 101.326 118.318C100.974 118.67 100.497 118.867 100 118.867C99.5027 118.867 99.0258 118.67 98.6742 118.318C98.3226 117.966 98.125 117.489 98.125 116.992C98.125 114.947 99.8299 113.242 101.875 113.242H107.5Z" fill="black"/>
<path fill-rule="evenodd" clip-rule="evenodd" d="M88.75 120.742H83.125C82.0862 120.742 81.25 121.578 81.25 122.617V130.117C81.25 131.156 82.0862 131.992 83.125 131.992H88.75C89.7887 131.992 90.625 131.156 90.625 130.117V122.617C90.625 121.578 89.7887 120.742 88.75 120.742Z" fill="#FFA221"/>
<path fill-rule="evenodd" clip-rule="evenodd" d="M86.875 124.492C88.1915 124.492 89.4848 125.098 90.625 126.25V130.117C90.625 131.156 89.7887 131.992 88.75 131.992H83.125C82.0862 131.992 81.25 131.156 81.25 130.117V128.938C81.9537 127.541 82.8192 126.422 83.789 125.656C84.7589 124.889 85.8108 124.492 86.875 124.492Z" fill="#FFC343"/>
<path fill-rule="evenodd" clip-rule="evenodd" d="M88.75 118.867C90.7951 118.867 92.5 120.572 92.5 122.617V130.117C92.5 132.162 90.7951 133.867 88.75 133.867H83.125C81.0799 133.867 79.375 132.162 79.375 130.117C79.375 129.62 79.5726 129.143 79.9242 128.791C80.2758 128.44 80.7527 128.242 81.25 128.242C81.7473 128.242 82.2242 128.44 82.5758 128.791C82.9274 129.143 83.125 129.62 83.125 130.117H88.75V122.617H83.125C83.125 123.114 82.9274 123.591 82.5758 123.943C82.2242 124.295 81.7473 124.492 81.25 124.492C80.7527 124.492 80.2758 124.295 79.9242 123.943C79.5726 123.591 79.375 123.114 79.375 122.617C79.375 120.572 81.0799 118.867 83.125 118.867H88.75Z" fill="black"/>
<path fill-rule="evenodd" clip-rule="evenodd" d="M86.2926 111.143C84.8491 111.143 83.406 110.601 82.3155 109.51C82.1409 109.336 82.0023 109.129 81.9078 108.901C81.8133 108.674 81.7646 108.429 81.7646 108.183C81.7646 107.936 81.8133 107.692 81.9078 107.464C82.0023 107.236 82.1409 107.029 82.3155 106.855C82.6671 106.504 83.144 106.306 83.6412 106.306C84.1384 106.306 84.6153 106.504 84.9669 106.855C85.7148 107.603 86.8703 107.603 87.6182 106.855L98.9781 95.4953C99.3298 95.1438 99.8066 94.9463 100.304 94.9463C100.801 94.9463 101.278 95.1438 101.629 95.4953L106.203 100.069C106.555 100.421 106.752 100.898 106.752 101.395C106.752 101.892 106.555 102.369 106.203 102.721C105.852 103.072 105.375 103.27 104.878 103.27C104.381 103.27 103.904 103.072 103.552 102.721L100.304 99.4723L90.2696 109.51C89.1791 110.601 87.736 111.143 86.2926 111.143ZM84.6739 103.72C84.1767 103.72 83.6998 103.523 83.3482 103.171C82.9967 102.819 82.7992 102.343 82.7992 101.845C82.7992 101.348 82.9967 100.871 83.3482 100.52L96.3267 87.5412C98.5078 85.3606 102.1 85.3606 104.281 87.5412L108.258 91.5182L112.235 87.5412L109.584 84.8898C109.34 84.6462 109.168 84.3401 109.087 84.0053C109.006 83.6705 109.019 83.3199 109.124 82.9919C109.23 82.6639 109.423 82.3712 109.684 82.1459C109.944 81.9206 110.262 81.7714 110.602 81.7148L126.514 79.0634C126.808 79.0146 127.109 79.0366 127.393 79.1277C127.677 79.2188 127.936 79.3764 128.147 79.5873C128.358 79.7982 128.515 80.0564 128.606 80.3405C128.697 80.6245 128.719 80.9261 128.67 81.2204L126.019 97.1323C125.962 97.4717 125.812 97.7889 125.587 98.049C125.361 98.3092 125.069 98.5022 124.741 98.6069C124.413 98.7117 124.062 98.7242 123.728 98.643C123.393 98.5618 123.088 98.3901 122.844 98.1467L120.193 95.4953L113.132 102.556C112.781 102.907 112.304 103.105 111.806 103.105C111.309 103.105 110.832 102.907 110.481 102.556C110.129 102.204 109.932 101.727 109.932 101.23C109.932 100.733 110.129 100.256 110.481 99.9045L118.867 91.5182C119.219 91.1667 119.696 90.9694 120.193 90.9694C120.69 90.9694 121.167 91.1667 121.518 91.5182L122.921 92.9208L124.54 83.1943L114.813 84.8129L116.216 86.2155C116.567 86.5671 116.765 87.044 116.765 87.5412C116.765 88.0384 116.567 88.5152 116.216 88.8669L109.584 95.4953C109.232 95.8468 108.755 96.0443 108.258 96.0443C107.761 96.0443 107.284 95.8468 106.932 95.4953L101.629 90.1926C100.881 89.4447 99.7261 89.4447 98.9781 90.1926L85.9996 103.171C85.648 103.523 85.1712 103.72 84.6739 103.72Z" fill="black"/>
</svg>
