<svg width="64" height="64" viewBox="0 0 64 64" fill="none" xmlns="http://www.w3.org/2000/svg">
<path d="M21.4329 37.7165C20.7536 38.0563 19.9282 37.7605 19.6189 37.0669L8.43842 11.9958C6.6596 8.00696 10.6096 3.86944 14.3103 5.84525L30.0534 14.2507C31.278 14.9044 32.719 14.9044 33.9436 14.2507L49.6868 5.84525C53.3876 3.86944 57.3374 8.00696 55.5588 11.9958L51.3676 21.394C50.8646 22.5217 49.986 23.4399 48.8817 23.9921L21.4329 37.7165Z" fill="#99B6E9"/>
<path opacity="0.5" d="M22.9585 41.4242C22.3203 41.7432 22.0465 42.5082 22.3371 43.1597L28.0721 56.02C29.6462 59.5501 34.3513 59.5501 35.9257 56.02L46.5068 32.2928C47.0166 31.1496 45.8124 29.9973 44.6926 30.557L22.9585 41.4242Z" fill="#99B6E9"/>
</svg>
