<svg width="120" height="120" viewBox="0 0 120 120" fill="none" xmlns="http://www.w3.org/2000/svg">
<g clip-path="url(#clip0_37_790)">
<path fill-rule="evenodd" clip-rule="evenodd" d="M86.25 63.75H46.5525L62.01 79.2C63.4725 80.6625 63.4725 83.0626 62.01 84.5251C60.5438 85.9876 58.17 85.9876 56.7038 84.5251L35.49 63.3C34.5937 62.4 34.3124 61.1625 34.5187 60C34.3124 58.8375 34.5937 57.6 35.49 56.7L56.7038 35.4749C58.17 34.0124 60.5438 34.0124 62.01 35.4749C63.4725 36.9749 63.4725 39.3375 62.01 40.8L46.5525 56.25H86.25C88.32 56.25 90 57.9375 90 60C90 62.0625 88.32 63.75 86.25 63.75ZM60 0C26.865 0 0 26.85 0 60C0 93.15 26.865 120 60 120C93.135 120 120 93.15 120 60C120 26.85 93.135 0 60 0Z" fill="black"/>
</g>
<defs>
<clipPath id="clip0_37_790">
<rect width="120" height="120" fill="white"/>
</clipPath>
</defs>
</svg>
