<svg width="80" height="80" viewBox="0 0 80 80" fill="none" xmlns="http://www.w3.org/2000/svg">
<path d="M40 0C18 0 0 18 0 40C0 62 18 80 40 80C62 80 80 62 80 40C80 18 62 0 40 0ZM59.6 24.4L52.8 57.2C52.4 59.6 50.8 60 49.2 58.8L38.8 50.8C36.4 53.2 34 55.2 33.6 56C32.8 56.4 32.4 57.2 31.6 57.2C30.4 57.2 30.4 56.4 30 55.6L26.4 43.6L15.6 40C13.2 39.2 13.2 37.6 16 36.4L56.8 20.8C58.4 20.4 60.4 21.2 59.6 24.4ZM50 28L27.2 42.4L30.8 54.4L31.6 46.4L51.2 28.8C52.4 27.6 51.6 27.6 50 28Z" fill="#99B6E9"/>
</svg>
